<svg width="766" height="766" viewBox="0 0 766 766" fill="none" xmlns="http://www.w3.org/2000/svg">
<defs>
  <radialGradient id="ambientGlow" cx="50%" cy="55%" r="48%">
    <stop offset="0%" stop-color="#2DC78E" stop-opacity="0.18"/>
    <stop offset="100%" stop-color="#2DC78E" stop-opacity="0"/>
  </radialGradient>
  <linearGradient id="bodyGrad" x1="383" y1="88" x2="383" y2="680" gradientUnits="userSpaceOnUse">
    <stop offset="0%" stop-color="#FFFFFF"/>
    <stop offset="25%" stop-color="#F0FAF6"/>
    <stop offset="60%" stop-color="#D8EDE5"/>
    <stop offset="100%" stop-color="#A8C4BA"/>
  </linearGradient>
  <linearGradient id="cupGradL" x1="210" y1="480" x2="318" y2="670" gradientUnits="userSpaceOnUse">
    <stop offset="0%" stop-color="#44E8A8"/>
    <stop offset="45%" stop-color="#2DC78E"/>
    <stop offset="100%" stop-color="#0F5C3A"/>
  </linearGradient>
  <linearGradient id="cupGradR" x1="556" y1="480" x2="448" y2="670" gradientUnits="userSpaceOnUse">
    <stop offset="0%" stop-color="#44E8A8"/>
    <stop offset="45%" stop-color="#2DC78E"/>
    <stop offset="100%" stop-color="#0F5C3A"/>
  </linearGradient>
  <linearGradient id="bandGrad" x1="383" y1="141" x2="383" y2="240" gradientUnits="userSpaceOnUse">
    <stop offset="0%" stop-color="#50EEB4"/>
    <stop offset="55%" stop-color="#2DC78E"/>
    <stop offset="100%" stop-color="#1a7a55"/>
  </linearGradient>
  <radialGradient id="innerShadow" cx="50%" cy="58%" r="52%">
    <stop offset="50%" stop-color="#0C0F12" stop-opacity="0"/>
    <stop offset="100%" stop-color="#0C0F12" stop-opacity="0.38"/>
  </radialGradient>
  <linearGradient id="sheen" x1="160" y1="150" x2="600" y2="360" gradientUnits="userSpaceOnUse">
    <stop offset="0%" stop-color="white" stop-opacity="0"/>
    <stop offset="38%" stop-color="white" stop-opacity="0.18"/>
    <stop offset="62%" stop-color="white" stop-opacity="0.07"/>
    <stop offset="100%" stop-color="white" stop-opacity="0"/>
  </linearGradient>
  <linearGradient id="waveGrad" x1="250" y1="383" x2="516" y2="383" gradientUnits="userSpaceOnUse">
    <stop offset="0%"   stop-color="#1aE090"/>
    <stop offset="25%"  stop-color="#2DC78E"/>
    <stop offset="50%"  stop-color="#5FF0B0"/>
    <stop offset="75%"  stop-color="#2DC78E"/>
    <stop offset="100%" stop-color="#1aE090"/>
  </linearGradient>

  <filter id="wgBloom" x="-20%" y="-120%" width="140%" height="340%">
    <feGaussianBlur stdDeviation="9" result="b1"/>
    <feGaussianBlur in="SourceGraphic" stdDeviation="3" result="b2"/>
    <feMerge><feMergeNode in="b1"/><feMergeNode in="b2"/><feMergeNode in="SourceGraphic"/></feMerge>
  </filter>
  <filter id="wgCrisp" x="-8%" y="-60%" width="116%" height="220%">
    <feGaussianBlur stdDeviation="2.5" result="b"/>
    <feComposite in="SourceGraphic" in2="b" operator="over"/>
  </filter>
  <filter id="lift" x="-12%" y="-8%" width="124%" height="124%">
    <feDropShadow dx="0" dy="10" stdDeviation="20" flood-color="#2DC78E" flood-opacity="0.22"/>
  </filter>
</defs>

<!-- Ambient glow -->
<ellipse cx="383" cy="440" rx="320" ry="305" fill="url(#ambientGlow)"/>

<!-- Dark backing layers -->
<path d="M383.197 140.601C277.116 140.601 216.397 174.705 183.44 222.627C187.74 227.985 198.469 239.635 209.211 237.68C223.079 235.159 231.905 223.812 258.381 202.379C274.178 189.582 312.594 163.295 383.197 163.295C453.801 163.295 492.217 189.582 508.014 202.379C534.49 223.812 543.316 235.159 557.184 237.68C567.926 239.635 578.655 227.985 582.955 222.627C549.998 174.705 489.279 140.601 383.197 140.601Z" fill="#0d1210"/>
<path d="M305.269 668.272L293.317 673.593C278.578 680.162 260.574 671.891 253.111 655.148C229.963 614.967 211.013 572.391 196.628 528.289C189.164 511.533 195.077 492.634 209.816 486.065L221.768 480.745C236.506 474.176 254.51 482.447 261.974 499.19C285.122 539.371 304.071 581.947 318.457 626.049C325.92 642.805 320.007 661.704 305.269 668.272Z" fill="#081a10"/>
<path d="M383.197 88.0139C202.138 87.8248 76.8292 203.64 124.638 435.849C133.438 478.577 147.622 512.693 156.031 532.512C153.812 535.967 153.106 540.342 154.455 544.515L154.531 544.767C168.462 587.999 187.197 629.529 210.383 668.588C214.064 674.791 221.818 677.237 228.387 674.274L243.163 667.617C247.513 676.341 258.002 680.149 266.979 676.102L272.098 673.795C264.155 670.681 257.12 664.137 253.111 655.148C229.963 614.967 211.013 572.391 196.628 528.289C193.136 520.459 192.581 512.163 194.472 504.864L190.576 506.629C185.218 509.049 181.612 513.739 180.339 519.047L180.011 519.199C160.759 466.372 55.3204 140.601 383.197 140.601C711.074 140.601 605.636 466.372 586.396 519.186L586.069 519.035C584.795 513.727 581.189 509.037 575.831 506.616L571.935 504.851C573.826 512.138 573.259 520.447 569.779 528.276C555.407 572.365 536.444 614.942 513.297 655.135C509.287 664.125 502.252 670.668 494.309 673.782L499.428 676.089C508.392 680.136 518.882 676.316 523.244 667.604L538.02 674.261C544.589 677.224 552.343 674.778 556.024 668.575C579.21 629.516 597.945 587.986 611.877 544.754L611.952 544.502C613.301 540.329 612.595 535.954 610.376 532.5C618.786 512.68 632.982 478.551 641.77 435.836C689.565 203.639 564.257 87.8248 383.197 88.0139Z" fill="#0d1210"/>
<path d="M462.126 668.272L474.078 673.593C488.817 680.162 506.82 671.891 514.284 655.148C537.432 614.967 556.381 572.391 570.767 528.289C578.231 511.533 572.318 492.634 557.579 486.065L545.627 480.745C530.889 474.176 512.885 482.447 505.421 499.19C482.273 539.371 463.324 581.947 448.938 626.049C441.474 642.805 447.388 661.704 462.126 668.272Z" fill="#081a10"/>

<!-- Main body - bright white gradient with lift shadow -->
<g filter="url(#lift)">
<path d="M383.197 88C564.257 87.8111 689.565 203.626 641.77 435.822C632.982 478.537 618.786 512.667 610.376 532.486C612.595 535.941 613.301 540.315 611.952 544.488L611.876 544.741C597.945 587.973 579.21 629.503 556.025 668.562C552.343 674.764 544.589 677.21 538.021 674.248L523.244 667.591C518.882 676.303 508.392 680.123 499.428 676.076L494.781 673.98C488.062 676.484 480.737 676.547 474.078 673.579L462.126 668.259C447.388 661.69 441.475 642.791 448.939 626.035C463.324 581.933 482.273 539.357 505.421 499.177C512.885 482.434 530.889 474.163 545.627 480.731L557.579 486.052C565.582 489.619 570.981 496.822 573.051 505.343L575.831 506.603C581.189 509.023 584.795 513.714 586.069 519.021L586.397 519.172C599.436 483.378 652.058 322.231 582.58 222.069C578.059 227.603 567.629 238.566 557.185 236.667C543.316 234.145 534.49 222.798 508.014 201.365C492.216 188.568 453.8 162.281 383.197 162.281C312.595 162.281 274.179 188.568 258.381 201.365C231.905 222.798 223.078 234.145 209.21 236.667C198.766 238.567 188.336 227.603 183.815 222.069C114.338 322.233 166.964 483.383 180.011 519.185L180.339 519.033C181.613 513.726 185.218 509.036 190.576 506.615L194.465 504.853C196.62 496.546 201.966 489.55 209.816 486.052L221.768 480.731C236.506 474.163 254.51 482.434 261.974 499.177C285.122 539.357 304.071 581.934 318.456 626.035C325.92 642.791 320.007 661.69 305.269 668.259L293.317 673.579C286.486 676.623 278.955 676.478 272.096 673.781L266.979 676.088C258.002 680.135 247.513 676.328 243.163 667.604L228.387 674.26C221.818 677.223 214.065 674.777 210.383 668.574C187.198 629.516 168.462 587.986 154.531 544.754L154.455 544.501C153.107 540.328 153.813 535.953 156.031 532.499C147.622 512.68 133.438 478.562 124.638 435.835C76.8297 203.626 202.138 87.8109 383.197 88Z" fill="url(#bodyGrad)"/>
</g>

<!-- Inner vignette -->
<path d="M383.197 88C564.257 87.8111 689.565 203.626 641.77 435.822C632.982 478.537 618.786 512.667 610.376 532.486C612.595 535.941 613.301 540.315 611.952 544.488L611.876 544.741C597.945 587.973 579.21 629.503 556.025 668.562C552.343 674.764 544.589 677.21 538.021 674.248L523.244 667.591C518.882 676.303 508.392 680.123 499.428 676.076L494.781 673.98C488.062 676.484 480.737 676.547 474.078 673.579L462.126 668.259C447.388 661.69 441.475 642.791 448.939 626.035C463.324 581.933 482.273 539.357 505.421 499.177C512.885 482.434 530.889 474.163 545.627 480.731L557.579 486.052C565.582 489.619 570.981 496.822 573.051 505.343L575.831 506.603C581.189 509.023 584.795 513.714 586.069 519.021L586.397 519.172C599.436 483.378 652.058 322.231 582.58 222.069C578.059 227.603 567.629 238.566 557.185 236.667C543.316 234.145 534.49 222.798 508.014 201.365C492.216 188.568 453.8 162.281 383.197 162.281C312.595 162.281 274.179 188.568 258.381 201.365C231.905 222.798 223.078 234.145 209.21 236.667C198.766 238.567 188.336 227.603 183.815 222.069C114.338 322.233 166.964 483.383 180.011 519.185L180.339 519.033C181.613 513.726 185.218 509.036 190.576 506.615L194.465 504.853C196.62 496.546 201.966 489.55 209.816 486.052L221.768 480.731C236.506 474.163 254.51 482.434 261.974 499.177C285.122 539.357 304.071 581.934 318.456 626.035C325.92 642.791 320.007 661.69 305.269 668.259L293.317 673.579C286.486 676.623 278.955 676.478 272.096 673.781L266.979 676.088C258.002 680.135 247.513 676.328 243.163 667.604L228.387 674.26C221.818 677.223 214.065 674.777 210.383 668.574C187.198 629.516 168.462 587.986 154.531 544.754L154.455 544.501C153.107 540.328 153.813 535.953 156.031 532.499C147.622 512.68 133.438 478.562 124.638 435.835C76.8297 203.626 202.138 87.8109 383.197 88Z" fill="url(#innerShadow)"/>

<!-- Diagonal sheen -->
<path d="M383.197 88C564.257 87.8111 689.565 203.626 641.77 435.822C632.982 478.537 618.786 512.667 610.376 532.486C612.595 535.941 613.301 540.315 611.952 544.488L611.876 544.741C597.945 587.973 579.21 629.503 556.025 668.562C552.343 674.764 544.589 677.21 538.021 674.248L523.244 667.591C518.882 676.303 508.392 680.123 499.428 676.076L494.781 673.98C488.062 676.484 480.737 676.547 474.078 673.579L462.126 668.259C447.388 661.69 441.475 642.791 448.939 626.035C463.324 581.933 482.273 539.357 505.421 499.177C512.885 482.434 530.889 474.163 545.627 480.731L557.579 486.052C565.582 489.619 570.981 496.822 573.051 505.343L575.831 506.603C581.189 509.023 584.795 513.714 586.069 519.021L586.397 519.172C599.436 483.378 652.058 322.231 582.58 222.069C578.059 227.603 567.629 238.566 557.185 236.667C543.316 234.145 534.49 222.798 508.014 201.365C492.216 188.568 453.8 162.281 383.197 162.281C312.595 162.281 274.179 188.568 258.381 201.365C231.905 222.798 223.078 234.145 209.21 236.667C198.766 238.567 188.336 227.603 183.815 222.069C114.338 322.233 166.964 483.383 180.011 519.185L180.339 519.033C181.613 513.726 185.218 509.036 190.576 506.615L194.465 504.853C196.62 496.546 201.966 489.55 209.816 486.052L221.768 480.731C236.506 474.163 254.51 482.434 261.974 499.177C285.122 539.357 304.071 581.934 318.456 626.035C325.92 642.791 320.007 661.69 305.269 668.259L293.317 673.579C286.486 676.623 278.955 676.478 272.096 673.781L266.979 676.088C258.002 680.135 247.513 676.328 243.163 667.604L228.387 674.26C221.818 677.223 214.065 674.777 210.383 668.574C187.198 629.516 168.462 587.986 154.531 544.754L154.455 544.501C153.107 540.328 153.813 535.953 156.031 532.499C147.622 512.68 133.438 478.562 124.638 435.835C76.8297 203.626 202.138 87.8109 383.197 88Z" fill="url(#sheen)"/>

<!-- Teal edge outline -->
<path d="M383.197 88C564.257 87.8111 689.565 203.626 641.77 435.822C632.982 478.537 618.786 512.667 610.376 532.486C612.595 535.941 613.301 540.315 611.952 544.488L611.876 544.741C597.945 587.973 579.21 629.503 556.025 668.562C552.343 674.764 544.589 677.21 538.021 674.248L523.244 667.591C518.882 676.303 508.392 680.123 499.428 676.076L494.781 673.98C488.062 676.484 480.737 676.547 474.078 673.579L462.126 668.259C447.388 661.69 441.475 642.791 448.939 626.035C463.324 581.933 482.273 539.357 505.421 499.177C512.885 482.434 530.889 474.163 545.627 480.731L557.579 486.052C565.582 489.619 570.981 496.822 573.051 505.343L575.831 506.603C581.189 509.023 584.795 513.714 586.069 519.021L586.397 519.172C599.436 483.378 652.058 322.231 582.58 222.069C578.059 227.603 567.629 238.566 557.185 236.667C543.316 234.145 534.49 222.798 508.014 201.365C492.216 188.568 453.8 162.281 383.197 162.281C312.595 162.281 274.179 188.568 258.381 201.365C231.905 222.798 223.078 234.145 209.21 236.667C198.766 238.567 188.336 227.603 183.815 222.069C114.338 322.233 166.964 483.383 180.011 519.185L180.339 519.033C181.613 513.726 185.218 509.036 190.576 506.615L194.465 504.853C196.62 496.546 201.966 489.55 209.816 486.052L221.768 480.731C236.506 474.163 254.51 482.434 261.974 499.177C285.122 539.357 304.071 581.934 318.456 626.035C325.92 642.791 320.007 661.69 305.269 668.259L293.317 673.579C286.486 676.623 278.955 676.478 272.096 673.781L266.979 676.088C258.002 680.135 247.513 676.328 243.163 667.604L228.387 674.26C221.818 677.223 214.065 674.777 210.383 668.574C187.198 629.516 168.462 587.986 154.531 544.754L154.455 544.501C153.107 540.328 153.813 535.953 156.031 532.499C147.622 512.68 133.438 478.562 124.638 435.835C76.8297 203.626 202.138 87.8109 383.197 88Z" fill="none" stroke="#2DC78E" stroke-width="1.5" opacity="0.22"/>

<!-- Headband -->
<path d="M383.197 141.587C277.116 141.587 216.397 175.691 183.44 223.613C187.74 228.971 198.469 240.621 209.211 238.667C223.079 236.145 231.905 224.798 258.381 203.365C274.178 190.568 312.594 164.281 383.197 164.281C453.801 164.281 492.217 190.568 508.014 203.365C534.49 224.798 543.316 236.145 557.184 238.667C567.926 240.621 578.655 228.971 582.955 223.613C549.998 175.691 489.279 141.587 383.197 141.587Z" fill="url(#bandGrad)"/>
<path d="M383.197 141.587C277.116 141.587 216.397 175.691 183.44 223.613C187.74 228.971 198.469 240.621 209.211 238.667C223.079 236.145 231.905 224.798 258.381 203.365C274.178 190.568 312.594 164.281 383.197 164.281C453.801 164.281 492.217 190.568 508.014 203.365C534.49 224.798 543.316 236.145 557.184 238.667C567.926 240.621 578.655 228.971 582.955 223.613C549.998 175.691 489.279 141.587 383.197 141.587Z" fill="none" stroke="rgba(255,255,255,0.28)" stroke-width="1.5"/>

<!-- Left ear cup -->
<path d="M305.268 668.259L293.316 673.579C278.578 680.148 260.574 671.877 253.11 655.134C229.962 614.953 211.013 572.377 196.627 528.275C189.164 511.519 195.077 492.62 209.815 486.052L221.767 480.731C236.506 474.163 254.51 482.433 261.973 499.176C285.121 539.357 304.071 581.934 318.456 626.035C325.92 642.791 320.007 661.69 305.268 668.259Z" fill="url(#cupGradL)"/>
<path d="M221.767 480.731C236.506 474.163 254.51 482.433 261.973 499.176C285.121 539.357 304.071 581.934 318.456 626.035C325.92 642.791 320.007 661.69 305.268 668.259" fill="none" stroke="rgba(255,255,255,0.32)" stroke-width="1.5" stroke-linecap="round"/>

<!-- Right ear cup -->
<path d="M462.126 668.259L474.078 673.579C488.816 680.148 506.82 671.877 514.284 655.134C537.432 614.953 556.381 572.377 570.767 528.275C578.23 511.519 572.317 492.62 557.579 486.052L545.627 480.731C530.888 474.163 512.884 482.433 505.421 499.176C482.273 539.357 463.323 581.934 448.938 626.035C441.474 642.791 447.387 661.69 462.126 668.259Z" fill="url(#cupGradR)"/>
<path d="M545.627 480.731C530.888 474.163 512.884 482.433 505.421 499.176C482.273 539.357 463.323 581.934 448.938 626.035C441.474 642.791 447.387 661.69 462.126 668.259" fill="none" stroke="rgba(255,255,255,0.32)" stroke-width="1.5" stroke-linecap="round"/>

<!-- R initial - black -->
<path d="M214.831 635.875C216.778 634.84 218.554 634.323 220.157 634.324C221.756 634.317 223.163 634.729 224.376 635.562C225.589 636.395 226.586 637.546 227.367 639.015C228.147 640.483 228.54 641.945 228.544 643.4C228.547 644.856 228.101 646.239 227.204 647.548C226.98 647.873 226.722 648.188 226.433 648.496L237.53 655.781L234.025 657.645L223.583 650.689C223.38 650.807 223.172 650.925 222.957 651.04L217.504 653.939L222.681 663.676L219.663 665.282L206.408 640.354L214.831 635.875ZM216.054 651.213L221.41 648.365C222.74 647.657 223.708 646.893 224.312 646.072C224.924 645.247 225.223 644.38 225.209 643.473C225.198 642.552 224.928 641.592 224.397 640.594C223.866 639.596 223.215 638.823 222.445 638.275C221.675 637.727 220.772 637.467 219.737 637.497C218.697 637.519 217.504 637.889 216.157 638.605L210.851 641.427L216.054 651.213Z" fill="#060809"/>

<!-- A initial - black -->
<path d="M548.698 665.821L545.49 664.335L546.266 656.004L536.051 651.269L530.196 657.246L526.988 655.76L547.972 634.797L551.13 636.261L548.698 665.821ZM538.272 649.002L546.56 652.843L547.797 639.571L547.6 639.48L538.272 649.002Z" fill="#060809"/>

<!-- Waveform - wide bloom glow -->
<g filter="url(#wgBloom)" opacity="0.5">
  <path class="wave-anim" d="M250 389H256C260.418 389 264 385.418 264 381V380C264 376.134 267.134 373 271 373C274.866 373 278 376.134 278 380V409.5C278 413.366 281.134 416.5 285 416.5C288.866 416.5 292 413.366 292 409.5V367.75C292 364.022 295.022 361 298.75 361C302.478 361 305.5 364.022 305.5 367.75V417.75C305.5 421.754 308.746 425 312.75 425C316.754 425 320 421.754 320 417.75V355.75C320 352.022 323.022 349 326.75 349C330.478 349 333.5 352.022 333.5 355.75V433.75C333.5 437.754 336.746 441 340.75 441C344.754 441 348 437.754 348 433.75V335.25C348 331.522 351.022 328.5 354.75 328.5C358.478 328.5 361.5 331.522 361.5 335.25V445.75C361.5 449.754 364.746 453 368.75 453C372.754 453 376 449.754 376 445.75V321C376 317.134 379.134 314 383 314C386.866 314 390 317.134 390 321V443.75C390 447.478 393.022 450.5 396.75 450.5C400.478 450.5 403.5 447.478 403.5 443.75V338.75C403.5 334.746 406.746 331.5 410.75 331.5C414.754 331.5 418 334.746 418 338.75V430C418 433.866 421.134 437 425 437C428.866 437 432 433.866 432 430V355.75C432 352.022 435.022 349 438.75 349C442.478 349 445.5 352.022 445.5 355.75V417.5C445.5 421.642 448.858 425 453 425C457.142 425 460.5 421.642 460.5 417.5V369.25C460.5 365.522 463.522 362.5 467.25 362.5C470.978 362.5 474 365.522 474 369.25V409.5C474 413.366 477.134 416.5 481 416.5C484.866 416.5 488 413.366 488 409.5V381.5C488 377.634 491.134 374.5 495 374.5C498.866 374.5 502 377.634 502 381.5V381.75C502 385.754 505.246 389 509.25 389H516" stroke="url(#waveGrad)" stroke-width="8" stroke-linecap="round" stroke-dasharray="9999 0" fill="none">
  </path>
</g>

<!-- Waveform - mid glow -->
<g filter="url(#wgCrisp)" opacity="0.7">
  <path class="wave-anim" d="M250 389H256C260.418 389 264 385.418 264 381V380C264 376.134 267.134 373 271 373C274.866 373 278 376.134 278 380V409.5C278 413.366 281.134 416.5 285 416.5C288.866 416.5 292 413.366 292 409.5V367.75C292 364.022 295.022 361 298.75 361C302.478 361 305.5 364.022 305.5 367.75V417.75C305.5 421.754 308.746 425 312.75 425C316.754 425 320 421.754 320 417.75V355.75C320 352.022 323.022 349 326.75 349C330.478 349 333.5 352.022 333.5 355.75V433.75C333.5 437.754 336.746 441 340.75 441C344.754 441 348 437.754 348 433.75V335.25C348 331.522 351.022 328.5 354.75 328.5C358.478 328.5 361.5 331.522 361.5 335.25V445.75C361.5 449.754 364.746 453 368.75 453C372.754 453 376 449.754 376 445.75V321C376 317.134 379.134 314 383 314C386.866 314 390 317.134 390 321V443.75C390 447.478 393.022 450.5 396.75 450.5C400.478 450.5 403.5 447.478 403.5 443.75V338.75C403.5 334.746 406.746 331.5 410.75 331.5C414.754 331.5 418 334.746 418 338.75V430C418 433.866 421.134 437 425 437C428.866 437 432 433.866 432 430V355.75C432 352.022 435.022 349 438.75 349C442.478 349 445.5 352.022 445.5 355.75V417.5C445.5 421.642 448.858 425 453 425C457.142 425 460.5 421.642 460.5 417.5V369.25C460.5 365.522 463.522 362.5 467.25 362.5C470.978 362.5 474 365.522 474 369.25V409.5C474 413.366 477.134 416.5 481 416.5C484.866 416.5 488 413.366 488 409.5V381.5C488 377.634 491.134 374.5 495 374.5C498.866 374.5 502 377.634 502 381.5V381.75C502 385.754 505.246 389 509.25 389H516" stroke="url(#waveGrad)" stroke-width="4.5" stroke-linecap="round" stroke-dasharray="9999 0" fill="none">
  </path>
</g>

<!-- Waveform - crisp white centerline -->
<path class="wave-anim" d="M250 389H256C260.418 389 264 385.418 264 381V380C264 376.134 267.134 373 271 373C274.866 373 278 376.134 278 380V409.5C278 413.366 281.134 416.5 285 416.5C288.866 416.5 292 413.366 292 409.5V367.75C292 364.022 295.022 361 298.75 361C302.478 361 305.5 364.022 305.5 367.75V417.75C305.5 421.754 308.746 425 312.75 425C316.754 425 320 421.754 320 417.75V355.75C320 352.022 323.022 349 326.75 349C330.478 349 333.5 352.022 333.5 355.75V433.75C333.5 437.754 336.746 441 340.75 441C344.754 441 348 437.754 348 433.75V335.25C348 331.522 351.022 328.5 354.75 328.5C358.478 328.5 361.5 331.522 361.5 335.25V445.75C361.5 449.754 364.746 453 368.75 453C372.754 453 376 449.754 376 445.75V321C376 317.134 379.134 314 383 314C386.866 314 390 317.134 390 321V443.75C390 447.478 393.022 450.5 396.75 450.5C400.478 450.5 403.5 447.478 403.5 443.75V338.75C403.5 334.746 406.746 331.5 410.75 331.5C414.754 331.5 418 334.746 418 338.75V430C418 433.866 421.134 437 425 437C428.866 437 432 433.866 432 430V355.75C432 352.022 435.022 349 438.75 349C442.478 349 445.5 352.022 445.5 355.75V417.5C445.5 421.642 448.858 425 453 425C457.142 425 460.5 421.642 460.5 417.5V369.25C460.5 365.522 463.522 362.5 467.25 362.5C470.978 362.5 474 365.522 474 369.25V409.5C474 413.366 477.134 416.5 481 416.5C484.866 416.5 488 413.366 488 409.5V381.5C488 377.634 491.134 374.5 495 374.5C498.866 374.5 502 377.634 502 381.5V381.75C502 385.754 505.246 389 509.25 389H516" stroke="white" stroke-width="1.2" stroke-linecap="round" opacity="0.6" stroke-dasharray="9999 0" fill="none">
  </path>
</svg>
